<svg width="200" height="280" viewBox="0 0 200 280" fill="none" xmlns="http://www.w3.org/2000/svg">
  <defs>
    <linearGradient id="bg" x1="24" y1="18" x2="170" y2="258" gradientUnits="userSpaceOnUse">
      <stop stop-color="#FFD66B"/>
      <stop offset="0.22" stop-color="#FF8A00"/>
      <stop offset="0.62" stop-color="#7A2700"/>
      <stop offset="1" stop-color="#180700"/>
    </linearGradient>
    <linearGradient id="foil" x1="34" y1="28" x2="162" y2="242" gradientUnits="userSpaceOnUse">
      <stop stop-color="white" stop-opacity="0.26"/>
      <stop offset="0.36" stop-color="white" stop-opacity="0.03"/>
      <stop offset="1" stop-color="#FFD07A" stop-opacity="0.22"/>
    </linearGradient>
    <linearGradient id="edge" x1="28" y1="18" x2="172" y2="262" gradientUnits="userSpaceOnUse">
      <stop stop-color="#FFF3C6"/>
      <stop offset="1" stop-color="#FF7B00"/>
    </linearGradient>
    <radialGradient id="glow" cx="0" cy="0" r="1" gradientUnits="userSpaceOnUse" gradientTransform="translate(100 116) rotate(90) scale(96 94)">
      <stop stop-color="#FFE8A5" stop-opacity="0.4"/>
      <stop offset="1" stop-color="#FFE8A5" stop-opacity="0"/>
    </radialGradient>
    <filter id="shadow" x="8" y="8" width="184" height="264" filterUnits="userSpaceOnUse" color-interpolation-filters="sRGB">
      <feDropShadow dx="0" dy="14" stdDeviation="12" flood-color="#4D1300" flood-opacity="0.62"/>
    </filter>
  </defs>
  <g filter="url(#shadow)">
    <path d="M38 18H162L172 30V250L162 262H38L28 250V30L38 18Z" fill="url(#bg)"/>
    <path d="M38 18H162L172 30V250L162 262H38L28 250V30L38 18Z" stroke="url(#edge)" stroke-width="4"/>
    <path d="M48 60L152 38L144 204L52 228L48 60Z" fill="url(#foil)"/>
    <path d="M32 50L168 42" stroke="#FFF0BE" stroke-opacity="0.8" stroke-width="3"/>
    <path d="M32 58L168 50" stroke="#FFF0BE" stroke-opacity="0.34" stroke-width="2"/>
    <path d="M32 242L168 234" stroke="#FFC46B" stroke-opacity="0.4" stroke-width="3"/>
    <path d="M100 70L146 94V144C146 174 127 201 100 216C73 201 54 174 54 144V94L100 70Z" fill="#291102" stroke="#FFD464" stroke-width="4"/>
    <path d="M100 84L132 100V138C132 160 119 179 100 192C81 179 68 160 68 138V100L100 84Z" fill="url(#glow)" stroke="#FF9A1F" stroke-width="2"/>
    <path d="M70 74L84 62L96 76H104L116 62L130 74L124 88H76L70 74Z" fill="#FFD45E" stroke="#FFF0B5" stroke-width="2"/>
    <circle cx="100" cy="140" r="28" fill="#FFF8E8"/>
    <path d="M100 116L110 123L106 136H94L90 123L100 116Z" fill="#C76A00"/>
    <path d="M90 123L80 129L82 141L94 136L90 123Z" fill="#E18A18"/>
    <path d="M110 123L120 129L118 141L106 136L110 123Z" fill="#E18A18"/>
    <path d="M82 141L88 153L100 149L94 136L82 141Z" fill="#8B4600"/>
    <path d="M118 141L112 153L100 149L106 136L118 141Z" fill="#8B4600"/>
    <path d="M88 153L100 164L112 153L100 149L88 153Z" fill="#D67B0E"/>
    <path d="M52 210H148L138 232H62L52 210Z" fill="#210B00" stroke="#FFD464" stroke-width="3"/>
    <path d="M40 200C58 176 70 168 88 164" stroke="#FFB84E" stroke-opacity="0.8" stroke-width="4"/>
    <path d="M160 200C142 176 130 168 112 164" stroke="#FFB84E" stroke-opacity="0.8" stroke-width="4"/>
  </g>
</svg>
